HIERARCHY
ROOT Hips
{
	OFFSET 0.000000 0.000000 0.000000
	CHANNELS 6 Xposition Yposition Zposition Zrotation Yrotation Xrotation 
	JOINT LHipJoint
	{
		OFFSET 0.000000 0.000000 0.000000
		CHANNELS 3 Zrotation Yrotation Xrotation
		JOINT LeftUpLeg
		{
			OFFSET 1.363060 -1.794630 0.839290
			CHANNELS 3 Zrotation Yrotation Xrotation
			JOINT LeftLeg
			{
				OFFSET 2.448110 -6.726130 0.000000
				CHANNELS 3 Zrotation Yrotation Xrotation
				JOINT LeftFoot
				{
					OFFSET 2.562200 -7.039590 0.000000
					CHANNELS 3 Zrotation Yrotation Xrotation
					JOINT LeftToeBase
					{
						OFFSET 0.157640 -0.433110 2.322550
						CHANNELS 3 Zrotation Yrotation Xrotation
						End Site
						{
							OFFSET 0.000000 0.000000 0.000000
						}
					}
				}
			}
		}
	}
	JOINT RHipJoint
	{
		OFFSET 0.000000 0.000000 0.000000
		CHANNELS 3 Zrotation Yrotation Xrotation
		JOINT RightUpLeg
		{
			OFFSET -1.305520 -1.794630 0.839290
			CHANNELS 3 Zrotation Yrotation Xrotation
			JOINT RightLeg
			{
				OFFSET -2.542530 -6.985550 0.000000
				CHANNELS 3 Zrotation Yrotation Xrotation
				JOINT RightFoot
				{
					OFFSET -2.568260 -7.056230 0.000000
					CHANNELS 3 Zrotation Yrotation Xrotation
					JOINT RightToeBase
					{
						OFFSET -0.164730 -0.452590 2.363150
						CHANNELS 3 Zrotation Yrotation Xrotation
						End Site
						{
							OFFSET 0.000000 0.000000 0.000000
						}
					}
				}
			}
		}
	}
	JOINT LowerBack
	{
		OFFSET 0.000000 0.000000 0.000000
		CHANNELS 3 Zrotation Yrotation Xrotation
		JOINT Spine
		{
			OFFSET 0.028270 2.035590 -0.193380
			CHANNELS 3 Zrotation Yrotation Xrotation
			JOINT Spine1
			{
				OFFSET 0.056720 2.048850 -0.042750
				CHANNELS 3 Zrotation Yrotation Xrotation
				JOINT Neck
				{
					OFFSET 0.000000 0.000000 0.000000
					CHANNELS 3 Zrotation Yrotation Xrotation
					JOINT Neck1
					{
						OFFSET -0.054170 1.746240 0.172020
						CHANNELS 3 Zrotation Yrotation Xrotation
						JOINT Head
						{
							OFFSET 0.104070 1.761360 -0.123970
							CHANNELS 3 Zrotation Yrotation Xrotation
							End Site
							{
								OFFSET 0.000000 0.000000 0.000000
							}
						}
					}
				}
				JOINT LeftShoulder
				{
					OFFSET 0.000000 0.000000 0.000000
					CHANNELS 3 Zrotation Yrotation Xrotation
					JOINT LeftArm
					{
						OFFSET 3.362410 1.200890 -0.311210
						CHANNELS 3 Zrotation Yrotation Xrotation
						JOINT LeftForeArm
						{
							OFFSET 4.983000 -0.000000 -0.000000
							CHANNELS 3 Zrotation Yrotation Xrotation
							JOINT LeftHand
							{
								OFFSET 3.483560 -0.000000 -0.000000
								CHANNELS 3 Zrotation Yrotation Xrotation
								JOINT LeftFingerBase
								{
									OFFSET 0.000000 0.000000 0.000000
									CHANNELS 3 Zrotation Yrotation Xrotation
									JOINT LeftHandIndex1
									{
										OFFSET 0.715260 -0.000000 -0.000000
										CHANNELS 3 Zrotation Yrotation Xrotation
										End Site
										{
											OFFSET 0.000000 0.000000 0.000000
										}
									}
								}
								JOINT LThumb
								{
									OFFSET 0.000000 0.000000 0.000000
									CHANNELS 3 Zrotation Yrotation Xrotation
									End Site
									{
										OFFSET 0.000000 0.000000 0.000000
									}
								}
							}
						}
					}
				}
				JOINT RightShoulder
				{
					OFFSET 0.000000 0.000000 0.000000
					CHANNELS 3 Zrotation Yrotation Xrotation
					JOINT RightArm
					{
						OFFSET -3.136600 1.374050 -0.404650
						CHANNELS 3 Zrotation Yrotation Xrotation
						JOINT RightForeArm
						{
							OFFSET -5.241900 -0.000000 -0.000000
							CHANNELS 3 Zrotation Yrotation Xrotation
							JOINT RightHand
							{
								OFFSET -3.444170 -0.000000 -0.000000
								CHANNELS 3 Zrotation Yrotation Xrotation
								JOINT RightFingerBase
								{
									OFFSET 0.000000 0.000000 0.000000
									CHANNELS 3 Zrotation Yrotation Xrotation
									JOINT RightHandIndex1
									{
										OFFSET -0.622530 -0.000000 -0.000000
										CHANNELS 3 Zrotation Yrotation Xrotation
										End Site
										{
											OFFSET 0.000000 0.000000 0.000000
										}
									}
								}
								JOINT RThumb
								{
									OFFSET 0.000000 0.000000 0.000000
									CHANNELS 3 Zrotation Yrotation Xrotation
									End Site
									{
										OFFSET 0.000000 0.000000 0.000000
									}
								}
							}
						}
					}
				}
			}
		}
	}
}
MOTION
Frames: 6
Frame Time: 0.033333
4.611907 17.177220 -27.276810 6.024287 -5.078753 3.036790 -11.075272 4.013318 3.263447 2.602579 12.563195 -1.972842 -3.422825 9.470814 22.636949 0.292815 11.048111 14.422879 1.794091 -0.065676 -51.416440 13.786963 -2.902668 5.254193 4.294717 -0.686461 -16.852079 -9.872569 9.998364 -16.077851 4.604584 -18.854457 16.985588 -0.837697 0.330844 -12.599225 3.205135 -0.414807 0.846004 -0.370285 -2.577494 -5.084644 -4.980253 -5.357097 2.389733 9.874981 -12.715160 -12.077229 -2.908970 -0.243548 -0.613789 0.053303 0.001477 -0.036012 1.098913 14.496097 1.720183 -65.567309 14.335996 4.800857 1.951495 -54.629610 -4.035742 5.014732 -0.271597 -0.000700 -0.415975 0.229104 -0.018071 -0.073740 0.021423 -0.064839 0.079525 0.108393 -0.018259 7.468172 -2.168429 -7.893093 71.307848 -7.106039 -8.548618 2.466852 27.792313 0.639563 -0.056531 4.785974 0.009573 0.117776 -0.098318 -0.048693 0.089078 0.082153 -0.096648 0.007214 -0.005972 0.057460 
4.457268 17.292540 -26.687843 6.181500 -4.202481 3.162628 -12.149678 4.211052 4.301670 2.857488 12.860472 -4.407103 -0.524296 7.338604 25.041260 0.038499 13.883010 23.729317 1.172214 -0.164265 -51.322562 11.628603 -1.852666 5.396083 4.836584 -0.238518 -17.340907 -6.876245 7.782655 -9.781411 4.080060 -17.213151 9.868515 -0.784485 0.359012 -12.338934 2.557332 -3.362823 0.182556 0.728636 -3.438711 -5.084093 -5.468021 -5.139809 2.924745 9.109998 -13.389400 -10.521297 -2.814077 -0.236657 -0.619522 0.050639 0.001407 -0.044606 0.528082 13.271164 1.283634 -64.439823 14.786561 3.841373 -0.518876 -51.664716 -2.121772 5.619119 -0.050248 0.016125 -0.449911 0.226373 -0.023580 -0.076478 0.012663 -0.066453 0.087011 0.096092 -0.018755 13.423584 -2.063146 -6.286267 69.282582 -8.436418 -8.147685 1.024772 26.477172 -0.369996 -0.220007 4.312933 0.003873 0.124245 -0.074823 -0.041797 0.086111 0.076462 -0.103013 0.008314 0.003547 0.061061 
4.279159 17.416978 -26.124699 4.788327 -3.968320 4.111097 -12.557761 4.626947 4.665520 4.189160 14.399126 -6.103507 0.875859 8.967976 23.943832 1.327596 16.447217 25.398832 0.559420 -0.327880 -50.418619 11.508276 -1.224123 4.701947 5.487865 0.371178 -17.155781 -4.505614 6.572100 -5.110257 3.498263 -16.512962 4.914157 -0.896619 0.364856 -13.382508 3.852451 -3.632676 -2.677516 0.703066 -3.380426 -4.681756 -5.270326 -6.610023 2.643734 8.691685 -13.419068 -9.640192 -2.929390 -0.275392 -0.484702 0.041416 0.015133 -0.051692 -1.736641 13.298397 0.144850 -60.984532 16.123160 4.515818 -1.130832 -46.437443 -1.362447 5.529582 0.731469 0.068756 -0.349273 0.128358 -0.039131 -0.087142 0.009889 -0.064692 0.096713 0.096210 -0.015394 15.642532 -1.735657 -6.431822 67.853024 -9.195785 -6.546392 1.384170 23.238225 -0.778396 0.039855 3.966095 0.023332 0.114851 -0.091816 -0.026989 0.085082 0.073313 -0.118158 0.015841 0.008140 0.071821 
4.101165 17.531403 -25.590736 3.584816 -4.847902 5.520643 -12.275109 5.670608 3.687749 2.072249 15.553847 -8.946760 4.399960 7.321225 24.509377 1.784277 17.833586 25.254858 0.725204 -0.314583 -48.622239 11.757859 -0.796733 4.764614 6.297303 0.124321 -17.860369 -2.555675 6.199251 -2.807913 2.355331 -14.708088 2.897763 -0.857554 0.314623 -16.180816 6.042968 -4.087636 -4.169310 -0.399289 -3.940176 -4.622263 -5.468976 -6.165985 2.933574 8.668291 -13.296461 -8.981798 -2.825363 -0.276799 -0.363896 0.032391 0.033446 -0.061676 -2.520749 13.149567 0.289835 -59.330890 18.115343 4.898572 -0.970812 -41.527272 -1.267042 5.067618 1.423906 0.095670 -0.294871 0.062091 -0.047158 -0.089816 0.018440 -0.069306 0.098440 0.103128 -0.010194 16.600725 -1.594328 -3.955582 65.866120 -8.448634 -4.373747 1.101164 22.104002 -1.256888 -0.044756 3.827347 0.014614 0.101662 -0.132410 -0.034248 0.086608 0.076128 -0.115111 0.011075 0.012364 0.066797 
3.935486 17.630961 -25.089479 1.820601 -6.105202 5.837650 -11.597986 4.262004 3.305349 1.885153 14.918497 -13.654742 4.416448 3.666280 32.404531 1.870225 17.298185 23.163652 1.338177 -0.244497 -44.192666 13.637840 -1.492480 5.043197 5.999974 0.019940 -15.855894 -0.983686 6.123430 -4.368596 1.500689 -12.602108 3.270850 -0.608855 0.201770 -19.698228 6.398315 -3.793873 -4.752790 -0.469742 -3.698868 -3.683425 -4.653447 -5.357380 2.279957 8.686337 -12.876067 -9.090408 -2.917777 -0.267223 -0.327339 0.007018 0.052955 -0.065483 -3.227536 13.395356 -0.052194 -60.417594 20.414586 5.691090 -1.375918 -35.229411 -1.080072 4.364462 1.902187 0.117198 -0.299562 -0.063165 -0.058662 -0.094787 0.028310 -0.068296 0.086889 0.106616 -0.007988 16.705186 -1.690564 -1.750750 62.554663 -4.369388 -1.824351 1.175893 21.781428 -1.091709 -0.210270 3.967904 0.014701 0.098326 -0.069557 -0.036925 0.080011 0.084752 -0.107678 0.015480 0.010693 0.061884 
3.771840 17.717682 -24.620636 2.166727 -6.811773 6.782805 -11.049527 3.382321 3.343883 -0.404690 13.900312 -19.998468 1.740444 2.122474 38.916429 2.107563 15.592244 14.393349 2.111511 -0.143087 -39.062168 14.554542 -2.070682 6.077111 5.438188 -0.965845 -15.124165 -1.233497 6.873866 -7.710643 1.003258 -10.907201 4.842791 -0.382630 0.115023 -23.805102 5.334576 -4.501610 -4.764869 -0.890356 -3.513916 -3.792502 -4.325230 -4.067424 1.885795 9.149136 -12.350884 -8.635476 -2.776914 -0.235993 -0.421020 -0.012003 0.059528 -0.074561 -2.927518 14.784800 0.255283 -62.780303 24.221733 4.291212 -1.913750 -30.616211 -0.669014 3.687184 2.478009 0.137897 -0.233987 -0.081513 -0.058229 -0.095384 0.031125 -0.069973 0.071991 0.103906 -0.013023 14.317233 -1.302994 -3.144188 61.026395 -2.162728 0.289322 1.593546 23.610313 -0.515773 -0.140420 4.231124 0.011768 0.043359 -0.026103 -0.048445 0.077278 0.090941 -0.095394 0.014957 0.010361 0.055057 
